HIERARCHY
ROOT Hips
{
	OFFSET -192.239197 91.863327 268.157410
	CHANNELS 6 Xposition Yposition Zposition Zrotation Yrotation Xrotation 
	JOINT LeftUpLeg
	{
		OFFSET 0.103459 1.857816 10.548500
		CHANNELS 3 Zrotation Yrotation Xrotation
		JOINT LeftLeg
		{
			OFFSET 43.500000 -0.000004 -0.000002
			CHANNELS 3 Zrotation Yrotation Xrotation
			JOINT LeftFoot
			{
				OFFSET 42.372204 0.000000 0.000002
				CHANNELS 3 Zrotation Yrotation Xrotation
				JOINT LeftToe
				{
					OFFSET 17.300009 0.000003 0.000000
					CHANNELS 3 Zrotation Yrotation Xrotation
					End Site
					{
						OFFSET 0.000000 0.000000 0.000000
					}
				}
			}
		}
	}
	JOINT RightUpLeg
	{
		OFFSET 0.103456 1.857821 -10.548500
		CHANNELS 3 Zrotation Yrotation Xrotation
		JOINT RightLeg
		{
			OFFSET 43.500046 -0.000011 0.000021
			CHANNELS 3 Zrotation Yrotation Xrotation
			JOINT RightFoot
			{
				OFFSET 42.372261 -0.000019 0.000007
				CHANNELS 3 Zrotation Yrotation Xrotation
				JOINT RightToe
				{
					OFFSET 17.299994 -0.000004 0.000006
					CHANNELS 3 Zrotation Yrotation Xrotation
					End Site
					{
						OFFSET 0.000000 0.000000 0.000000
					}
				}
			}
		}
	}
	JOINT Spine
	{
		OFFSET 6.901965 -2.603729 -0.000004
		CHANNELS 3 Zrotation Yrotation Xrotation
		JOINT Spine1
		{
			OFFSET 12.588105 -0.000017 0.000001
			CHANNELS 3 Zrotation Yrotation Xrotation
			JOINT Spine2
			{
				OFFSET 12.343203 0.000021 -0.000004
				CHANNELS 3 Zrotation Yrotation Xrotation
				JOINT Neck
				{
					OFFSET 25.832893 0.000000 0.000007
					CHANNELS 3 Zrotation Yrotation Xrotation
					JOINT Head
					{
						OFFSET 11.766613 0.000003 -0.000001
						CHANNELS 3 Zrotation Yrotation Xrotation
						End Site
						{
							OFFSET 0.000000 0.000000 0.000000
						}
					}
				}
				JOINT LeftShoulder
				{
					OFFSET 19.745899 -1.480377 6.000118
					CHANNELS 3 Zrotation Yrotation Xrotation
					JOINT LeftArm
					{
						OFFSET 11.284114 -0.000022 -0.000021
						CHANNELS 3 Zrotation Yrotation Xrotation
						JOINT LeftForeArm
						{
							OFFSET 33.000061 0.000029 0.000027
							CHANNELS 3 Zrotation Yrotation Xrotation
							JOINT LeftHand
							{
								OFFSET 25.200005 0.000012 0.000013
								CHANNELS 3 Zrotation Yrotation Xrotation
								End Site
								{
									OFFSET 0.000000 0.000000 0.000000
								}
							}
						}
					}
				}
				JOINT RightShoulder
				{
					OFFSET 19.746094 -1.480389 -6.000068
					CHANNELS 3 Zrotation Yrotation Xrotation
					JOINT RightArm
					{
						OFFSET 11.284139 -0.000024 -0.000014
						CHANNELS 3 Zrotation Yrotation Xrotation
						JOINT RightForeArm
						{
							OFFSET 33.000092 0.000013 0.000007
							CHANNELS 3 Zrotation Yrotation Xrotation
							JOINT RightHand
							{
								OFFSET 25.199764 0.000144 0.000434
								CHANNELS 3 Zrotation Yrotation Xrotation
								End Site
								{
									OFFSET 0.000000 0.000000 0.000000
								}
							}
						}
					}
				}
			}
		}
	}
}
MOTION
Frames: 12
Frame Time: 0.033333
-192.239197 91.863327 268.157410 90.288578 0.812593 88.017895 -178.193010 -1.020597 175.387742 -12.237297 -0.080600 -0.467069 82.111032 0.094602 -1.133312 21.454558 0.003101 0.000001 178.129585 2.211391 178.951038 -15.709946 -4.332524 1.844452 81.945912 0.398379 7.102570 21.454563 -0.003105 -0.000019 6.118731 -0.034072 -0.146561 2.224703 -0.065436 -0.293750 1.906592 -0.067089 -0.293334 1.877720 -1.435287 1.836395 6.098715 -2.034234 1.523727 -164.386234 -77.581598 -17.379473 -8.645384 34.772903 9.949739 -41.516731 -15.577870 1.536002 8.567922 -5.426208 43.295329 -162.024778 78.210352 19.775081 -14.345831 -26.632458 -22.000891 -49.826957 15.371276 -1.799473 5.747449 3.088245 -17.222329 
-192.042297 91.816360 268.243805 90.265103 0.750760 87.629592 -178.215263 -0.914000 175.325123 -12.390423 -0.140844 -0.651905 82.349897 0.242147 -1.059956 21.454553 0.003099 0.000001 177.872811 2.271295 178.757498 -16.073138 -4.438783 1.722068 82.118900 0.504943 7.232235 21.454557 -0.003108 -0.000017 6.175771 -0.025354 -0.114288 2.338752 -0.048485 -0.229056 2.020653 -0.049738 -0.228751 2.852293 -1.214972 1.913652 6.896624 -2.192944 1.708472 -163.654010 -76.162429 -18.137047 -8.571106 41.439144 10.473513 -42.458010 -15.900655 1.583053 8.298123 -5.884300 43.107021 -163.354889 77.085337 18.428327 -13.803678 -30.824063 -25.088350 -52.722763 15.036689 -1.873178 5.497506 0.528261 -21.437158 
-191.831696 91.745789 268.369812 90.253368 0.736945 87.105587 -178.216014 -0.764291 175.176881 -12.679701 -0.164994 -0.869764 82.686495 0.405060 -1.016016 21.454551 0.003097 0.000000 177.554674 2.316807 178.787974 -16.635598 -4.700755 1.402184 82.398945 0.750220 7.381984 21.454558 -0.003107 -0.000018 6.250810 -0.017093 -0.059330 2.488790 -0.032999 -0.118989 2.170706 -0.033573 -0.118789 4.023244 -1.187636 2.099945 7.701436 -2.293265 1.909662 -161.908705 -75.111993 -19.933123 -8.690925 48.173560 10.391125 -40.703437 -16.209485 1.555352 9.056194 -5.982905 40.660406 -164.595415 75.890621 17.168729 -12.706627 -34.791379 -27.517451 -54.594986 14.965791 -1.932856 6.325658 -1.639134 -23.884016 
-191.611801 91.650467 268.522491 90.268702 0.768409 86.538790 -178.245411 -0.577699 174.868661 -13.157584 -0.149287 -1.021192 83.130704 0.520805 -0.973952 21.454553 0.003098 0.000000 177.167389 2.368996 178.979315 -17.424630 -5.074765 0.976898 82.790178 1.068872 7.556353 21.454557 -0.003111 -0.000019 6.338663 -0.006997 0.008013 2.664491 -0.014210 0.015841 2.346371 -0.013990 0.015949 5.611312 -1.243833 2.334494 8.260330 -2.714972 2.190567 -160.294609 -74.559158 -21.594106 -9.410387 54.698784 8.273342 -35.840779 -15.641756 1.396170 9.026082 -6.830733 36.040145 -165.115083 74.887212 16.642121 -11.372985 -38.549577 -29.556291 -54.786815 15.220711 -1.956696 7.020885 -2.907283 -24.654171 
-191.400803 91.536339 268.698212 90.308672 0.862491 86.009376 -178.264877 -0.378596 174.412050 -13.754095 -0.103009 -1.064607 83.629103 0.563020 -0.923985 21.454550 0.003085 -0.000000 176.770213 2.428998 179.227128 -18.388654 -5.496997 0.553808 83.258462 1.383486 7.746597 21.454557 -0.003107 -0.000018 6.444924 0.009590 0.064729 2.877015 0.017552 0.129664 2.558911 0.018463 0.129573 7.391760 -1.529112 2.549283 8.955562 -3.281013 2.393496 -159.906203 -74.487031 -21.993426 -10.563113 59.656511 6.956883 -28.800688 -13.497106 1.110567 10.187890 -8.127643 30.163960 -164.624484 74.351732 17.148163 -10.061856 -42.551761 -30.444038 -53.101914 15.169241 -1.894965 7.375905 -1.664938 -22.950697 
-191.214005 91.415047 268.891388 90.371988 0.978163 85.501264 -178.259454 -0.181303 173.793836 -14.351385 -0.034421 -1.001385 84.113752 0.531999 -0.868721 21.454555 0.003096 0.000001 176.355375 2.480304 179.419944 -19.456864 -5.942440 0.190658 83.749266 1.654909 7.947577 21.454557 -0.003108 -0.000017 6.566601 0.009447 0.046711 3.120360 0.017606 0.093644 2.802262 0.018301 0.093533 8.979458 -1.605501 2.862466 9.995634 -4.117409 2.783002 -160.302819 -74.600801 -21.585208 -10.935144 62.044953 8.725055 -21.906768 -9.414085 0.738862 12.290989 -7.466752 25.032025 -164.492101 73.940575 17.286567 -8.804688 -46.263631 -31.058564 -50.001114 15.587470 -1.819515 7.308864 -0.165396 -21.322613 
-191.065506 91.304657 269.079102 90.418953 1.039690 84.973543 -178.301228 -0.019499 173.335940 -14.927575 0.007730 -1.049200 84.544867 0.569102 -0.850623 21.454551 0.003094 -0.000000 175.831582 2.471801 179.458822 -20.621116 -6.369431 -0.082985 84.158237 1.865552 8.141401 21.454560 -0.003097 -0.000017 6.682485 0.002772 -0.020767 3.352108 0.006099 -0.041452 3.034009 0.005974 -0.041480 10.452608 -1.515957 3.289704 11.073630 -5.078225 3.333382 -161.414596 -74.486102 -20.446380 -10.635113 63.045091 10.574691 -15.827297 -4.838036 0.372900 13.934628 -4.803173 24.538501 -164.431695 73.737425 17.349782 -8.069430 -49.413669 -31.435871 -45.623468 15.692269 -1.689596 6.950942 1.494702 -18.619381 
-190.949997 91.188957 269.265015 90.483020 1.069757 84.380615 -178.386072 0.160500 172.833566 -15.530153 0.097512 -1.117747 84.960696 0.611853 -0.868085 21.454550 0.003091 0.000001 175.255797 2.460492 179.344280 -21.809513 -6.738416 -0.296824 84.574490 2.023194 8.297998 21.454558 -0.003110 -0.000017 6.794181 -0.028813 -0.093475 3.575571 -0.054793 -0.187790 3.257457 -0.055805 -0.187447 11.842014 -1.316039 3.734658 12.046119 -6.095427 3.926339 -162.220285 -74.424876 -19.620557 -9.481886 63.795053 10.718234 -10.447042 -1.393520 0.106376 15.064814 -1.982584 26.449597 -164.522728 73.766070 17.256164 -7.460152 -51.998811 -31.798263 -40.659276 15.469176 -1.533827 7.239014 2.809764 -16.227071 
-190.869400 91.065170 269.439514 90.557967 1.048484 83.700874 -178.525818 0.338592 172.331055 -16.140191 0.199518 -1.240850 85.380923 0.682653 -0.930750 21.454551 0.003098 -0.000001 174.630424 2.433897 179.116807 -22.959671 -7.061930 -0.483813 85.007121 2.149179 8.410216 21.454558 -0.003113 -0.000018 6.917117 -0.071091 -0.133380 3.821549 -0.137851 -0.269006 3.503456 -0.139328 -0.268174 12.917952 -1.260374 4.206828 12.989165 -7.003151 4.462476 -162.753012 -74.393560 -19.074353 -7.009797 64.382449 10.509382 -6.637058 -0.144616 0.010549 17.027066 0.757373 28.567661 -164.396902 74.003980 17.383827 -6.587540 -54.138378 -32.439300 -36.030074 15.042962 -1.389019 7.807735 3.470327 -13.250851 
-190.808197 90.950348 269.564209 90.629015 0.903977 83.038380 -178.820008 0.512602 172.074513 -16.737063 0.302335 -1.502377 85.786452 0.836009 -1.053209 21.454553 0.003105 0.000000 173.851619 2.389001 178.943020 -24.097985 -7.355087 -0.687464 85.353275 2.283189 8.479436 21.454558 -0.003111 -0.000019 7.053255 -0.102742 -0.134422 4.093913 -0.200763 -0.272381 3.775817 -0.202275 -0.271152 13.545956 -1.525001 4.706684 13.821086 -7.724425 4.893115 -162.134703 -74.165780 -19.710959 -4.128010 64.342090 12.602876 -5.481257 -0.423817 0.029509 18.658794 3.749279 29.708198 -163.790300 74.155384 18.005279 -5.435405 -55.211359 -33.561320 -32.334665 14.124896 -1.246947 8.767804 2.764595 -10.441085 
-190.750702 90.848183 269.604797 90.701743 0.557229 82.405570 -179.402514 0.662297 171.954807 -17.389137 0.407175 -1.829086 86.212062 1.030811 -1.194799 21.454550 0.003088 -0.000001 172.727192 2.379812 178.862355 -25.389428 -7.537460 -0.954521 85.612241 2.464575 8.539298 21.454558 -0.003104 -0.000019 7.167990 -0.140640 -0.091490 4.323384 -0.277836 -0.188128 4.005283 -0.278830 -0.186448 14.003207 -1.661642 5.182705 14.395985 -8.495733 5.353297 -161.249592 -74.054844 -20.620527 -1.210611 63.638300 16.018115 -5.999133 -1.291735 0.089747 19.258719 5.207726 30.969751 -163.239144 74.076496 18.571498 -3.596912 -55.429092 -35.475654 -30.154636 13.242038 -1.145929 10.156086 1.504682 -9.278324 
-190.718903 90.721550 269.553101 90.793329 0.038121 81.755759 179.735335 0.683002 171.455083 -18.175381 0.465743 -1.923988 86.738355 1.084800 -1.260265 21.454550 0.003090 -0.000001 171.092100 2.317506 178.429690 -27.242167 -7.511031 -0.960827 85.783194 2.447364 8.499864 21.454558 -0.003111 -0.000018 7.262875 -0.172105 -0.027649 4.513013 -0.343054 -0.061923 4.194909 -0.343282 -0.059845 14.303102 -1.985693 5.746147 14.769123 -8.916256 5.815569 -160.341600 -73.778331 -21.556103 0.847009 62.414713 19.152790 -7.733596 -2.695772 0.187893 19.039123 5.122997 30.674923 -163.059988 74.055500 18.755503 -1.335582 -55.254704 -37.918608 -28.701496 12.770307 -1.088095 10.529929 -0.496953 -9.031277 
